<svg xmlns="http://www.w3.org/2000/svg" xmlns:xlink="http://www.w3.org/1999/xlink" version="1.1" x="0px" y="0px" viewBox="0 0 100 125" enable-background="new 0 0 100 100" xml:space="preserve"><g><g><circle fill="none" cx="50" cy="50" r="0.911"/><path fill="#CCA22C" d="M50,48.395c-0.885,0-1.605,0.72-1.605,1.605c0,0.885,0.72,1.605,1.605,1.605c0.885,0,1.605-0.72,1.605-1.605    C51.605,49.115,50.885,48.395,50,48.395z M50,50.911c-0.502,0-0.911-0.409-0.911-0.911c0-0.502,0.409-0.911,0.911-0.911    c0.502,0,0.911,0.409,0.911,0.911C50.911,50.502,50.502,50.911,50,50.911z"/><path fill="#CCA22C" d="M47.646,50c0-0.81,0.409-1.553,1.093-1.988c0.162-0.103,0.21-0.318,0.107-0.479c-0.103-0.162-0.317-0.21-0.479-0.107    c-0.787,0.5-1.29,1.316-1.393,2.227H10.951c0.056-0.544,0.262-1.173,0.718-1.885c0.104-0.161,0.056-0.376-0.105-0.48    c-0.161-0.104-0.376-0.056-0.48,0.105c-2.124,3.315,0.45,5.285,0.476,5.304c0.062,0.046,0.135,0.068,0.207,0.068    c0.106,0,0.211-0.048,0.279-0.14c0.114-0.154,0.082-0.371-0.072-0.486c-0.054-0.04-0.858-0.656-1.014-1.793h36.012    c0.099,0.858,0.559,1.643,1.274,2.146c0.061,0.043,0.13,0.063,0.199,0.063c0.109,0,0.217-0.051,0.284-0.147    c0.111-0.157,0.073-0.373-0.084-0.484C48.02,51.485,47.646,50.765,47.646,50z"/><path fill="#CCA22C" d="M88.435,47.289c-0.161,0.103-0.208,0.318-0.105,0.48c0.455,0.71,0.66,1.339,0.714,1.885H53.026    c-0.103-0.911-0.606-1.727-1.393-2.227c-0.162-0.103-0.376-0.055-0.479,0.107c-0.103,0.162-0.055,0.376,0.107,0.479    c0.684,0.435,1.093,1.178,1.093,1.988c0,0.765-0.374,1.485-1,1.926c-0.157,0.11-0.194,0.327-0.084,0.484    c0.067,0.096,0.175,0.147,0.284,0.147c0.069,0,0.139-0.021,0.199-0.063c0.715-0.504,1.175-1.289,1.274-2.146h36.006    c-0.158,1.133-0.955,1.753-1.009,1.794c-0.153,0.114-0.185,0.331-0.071,0.485c0.068,0.092,0.173,0.14,0.279,0.14    c0.072,0,0.145-0.022,0.207-0.068c0.026-0.019,2.6-1.989,0.476-5.304C88.811,47.232,88.597,47.185,88.435,47.289z"/><path fill="#CCA22C" d="M10.364,47.859c0.153-0.114,0.185-0.331,0.071-0.485c-0.114-0.154-0.332-0.186-0.486-0.072    c-0.017,0.013-1.113,0.852-1.29,2.351H6.541c1.645-1.048,1.713-1.114,1.742-1.143c0.136-0.136,0.146-0.365,0.011-0.501    c-0.136-0.135-0.345-0.145-0.48-0.01c-0.138,0.107-1.7,1.104-2.652,1.707C5.065,49.768,5.005,49.873,5,49.987    c-0.004,0.114,0.048,0.223,0.14,0.292l2.452,1.822c0.062,0.046,0.135,0.068,0.207,0.068c0.106,0,0.211-0.048,0.279-0.14    c0.114-0.154,0.082-0.371-0.072-0.486l-1.61-1.197h2.25c0.051,0.659,0.287,1.415,0.828,2.259c0.066,0.103,0.178,0.16,0.293,0.16    c0.064,0,0.129-0.018,0.187-0.055c0.161-0.103,0.208-0.318,0.105-0.48C8.29,49.474,10.277,47.924,10.364,47.859z"/><path fill="#CCA22C" d="M94.839,49.707c-0.944-0.598-2.487-1.583-2.648-1.704c-0.136-0.119-0.344-0.114-0.474,0.016    c-0.136,0.136-0.136,0.355,0,0.491c0.029,0.029,0.097,0.095,1.742,1.143h-2.117c-0.178-1.498-1.273-2.338-1.29-2.351    c-0.154-0.114-0.371-0.082-0.486,0.072c-0.114,0.154-0.082,0.371,0.071,0.486c0.059,0.044,1.013,0.775,1.039,2.122    c0,0.006-0.004,0.012-0.004,0.019c0,0.007,0.004,0.014,0.004,0.021c0.004,0.614-0.184,1.353-0.734,2.211    c-0.104,0.161-0.056,0.376,0.105,0.48c0.058,0.037,0.123,0.055,0.187,0.055c0.114,0,0.226-0.056,0.293-0.16    c0.541-0.844,0.776-1.6,0.828-2.259h2.25l-1.61,1.197c-0.154,0.114-0.186,0.332-0.072,0.486c0.068,0.092,0.173,0.14,0.279,0.14    c0.072,0,0.145-0.022,0.207-0.068l2.452-1.822c0.092-0.068,0.144-0.177,0.14-0.292C94.995,49.873,94.935,49.768,94.839,49.707z"/></g></g></svg>